<svg xmlns="http://www.w3.org/2000/svg" aria-hidden="true" style="position:absolute;width:0;height:0;overflow:hidden">
  <defs>
    <symbol id="icon-brain" viewBox="0 0 32 32">
      <path fill="#0c2f54" d="M12.75 2.667a4.064 4.064 0 0 1 2.417.792v24.705a4.779 4.779 0 0 1-3.138 1.169 4.809 4.809 0 0 1-4.558-3.285l-.25-.753a5.163 5.163 0 0 1-4.494-4.357 5.163 5.163 0 0 1 3.005-5.491A4.985 4.985 0 0 1 4 11.667a4.998 4.998 0 0 1 4.669-4.988 4.085 4.085 0 0 1 4.081-4.012zm6.5 0a4.083 4.083 0 0 1 4.081 4.012 5 5 0 0 1 4.216 7.067 4.995 4.995 0 0 1-1.278 1.701 5.17 5.17 0 0 1 1.492 8.428 5.164 5.164 0 0 1-2.982 1.421l-.25.753a4.81 4.81 0 0 1-4.558 3.285c-1.2 0-2.296-.442-3.138-1.169V3.46a4.064 4.064 0 0 1 2.417-.792z" style="fill:var(--color1, #0c2f54)"/>
    </symbol>
    <symbol id="icon-clock" viewBox="0 0 32 32">
      <path fill="#0c2f54" d="M16 4.333a11.668 11.668 0 1 0 0 23.335 11.668 11.668 0 0 0 0-23.335zm-1.333 6.334a1.335 1.335 0 0 1 2.277-.943c.25.251.391.589.391.943v4.781l2.276 2.276a1.332 1.332 0 0 1-.017 1.869 1.33 1.33 0 0 1-1.869.017l-2.667-2.667a1.334 1.334 0 0 1-.391-.943v-5.333z" style="fill:var(--color1, #0c2f54)"/>
    </symbol>
    <symbol id="icon-close" viewBox="0 0 33 32">
      <path stroke-linecap="round" stroke-linejoin="round" stroke-width="1.778" d="M10.074 23.704 24.296 9.482m0 14.222L10.074 9.482"/>
    </symbol>
    <symbol id="icon-dice" viewBox="0 0 32 32">
      <path fill="#0c2f54" d="M14.245 14.944a3.335 3.335 0 0 0 2.728-3.844l-1.328-7.825a3.318 3.318 0 0 0-1.358-2.16A3.336 3.336 0 0 0 11.8.548L3.661 1.931A3.335 3.335 0 0 0 .933 5.775L2.261 13.6a3.318 3.318 0 0 0 1.358 2.16 3.336 3.336 0 0 0 2.487.567l8.139-1.383zM7.307 8.437a1.648 1.648 0 1 1 3.296.001 1.648 1.648 0 0 1-3.296-.001zm19.596 21.327a3.334 3.334 0 0 1-4.522 1.328l-7.245-3.957c-.776-.424-1.351-1.138-1.601-1.986s-.151-1.761.273-2.536l3.804-6.965c.424-.776 1.138-1.351 1.986-1.601s1.761-.151 2.536.273l7.247 3.957a3.334 3.334 0 0 1 1.327 4.523l-3.804 6.965zm-5.614-11.528a1.648 1.648 0 1 0 .001 3.296 1.648 1.648 0 0 0-.001-3.296zm.227 7.027a1.648 1.648 0 1 1 3.296.001 1.648 1.648 0 0 1-3.296-.001z" style="fill:var(--color1, #0c2f54)"/>
    </symbol>
    <symbol id="icon-left-arrow" viewBox="0 0 31 32">
      <path fill="#fff" d="M15.709.291C24.385.291 31.418 7.324 31.418 16s-7.033 15.709-15.709 15.709C7.033 31.709 0 24.676 0 16S7.033.291 15.709.291z" style="fill:var(--color2, #fff)"/>
      <path fill="#0c2f54" d="M9.018 12.977c-2.327 1.344-2.327 4.703 0 6.046l7.418 4.283c2.327 1.344 5.236-.336 5.236-3.023v-8.566c0-2.687-2.909-4.367-5.236-3.023l-7.418 4.283z" style="fill:var(--color1, #0c2f54)"/>
    </symbol>
    <symbol id="icon-menu" viewBox="0 0 33 32">
      <path stroke-linecap="round" stroke-width="2.37" d="M4.593 9.333h24M4.593 16h24m-24 6.667h24"/>
    </symbol>
    <symbol id="icon-minus" viewBox="0 0 31 32">
      <path stroke-linecap="round" stroke-linejoin="round" stroke-width="1.297" d="M7.784 15.949h15.568"/>
    </symbol>
    <symbol id="icon-plus" viewBox="0 0 31 32">
      <path stroke-linecap="round" stroke-linejoin="round" stroke-width="1.73" d="M7.784 15.949h15.568m-7.784 7.784V8.165"/>
    </symbol>
    <symbol id="icon-right-arrow" viewBox="0 0 31 32">
      <path fill="#fff" d="M15.709.291C24.385.291 31.418 7.324 31.418 16s-7.033 15.709-15.709 15.709C7.033 31.709 0 24.676 0 16S7.033.291 15.709.291z" style="fill:var(--color2, #fff)"/>
      <path fill="#0c2f54" d="M22.4 12.977c2.327 1.344 2.327 4.703 0 6.046l-7.418 4.283c-2.327 1.344-5.236-.336-5.236-3.023v-8.566c0-2.687 2.909-4.367 5.236-3.023l7.418 4.283z" style="fill:var(--color1, #0c2f54)"/>
    </symbol>
    <symbol id="icon-rocket" viewBox="0 0 32 32">
      <path fill="#0c2f54" d="M17.829.766a1.708 1.708 0 0 1 1.176 1.498c.017.224-.01.45-.08.664a6.4 6.4 0 0 0 .176 4.459 1.719 1.719 0 0 1 .003 1.312 1.715 1.715 0 0 1-3.169.006 9.827 9.827 0 0 1-.272-6.843A1.712 1.712 0 0 1 17.828.765zm-5.317 6.715a1.714 1.714 0 1 0-3.397-.473 6.265 6.265 0 0 0 .983 4.325 1.712 1.712 0 0 0 3.119-.601 1.713 1.713 0 0 0-.263-1.294 2.835 2.835 0 0 1-.443-1.957zM5.89 18.985a2.753 2.753 0 0 1 1.947-.281 1.709 1.709 0 0 0 1.817-.66 1.715 1.715 0 0 0-1.057-2.682 6.168 6.168 0 0 0-4.379.629c-.197.11-.37.257-.509.434s-.243.379-.305.596a1.717 1.717 0 0 0 1.181 2.117c.437.124.906.069 1.303-.152zm22.441 12.402a3.08 3.08 0 0 0 2.941-2.902c.327-5.605-1.886-11.445-4.907-16.647a3.286 3.286 0 0 0-2.128-1.56 3.292 3.292 0 0 0-2.592.498c-1.792 1.216-4.517 3.15-6.103 4.713-1.582 1.561-3.552 4.261-4.791 6.034a3.304 3.304 0 0 0 .008 3.821c.264.37.601.681.991.915 5.159 3.093 10.969 5.381 16.581 5.129zM4.674 11.216a1.714 1.714 0 0 0 0-3.428H3.531a1.714 1.714 0 0 0 0 3.428h1.143z" style="fill:var(--color1, #0c2f54)"/>
    </symbol>
    <symbol id="icon-users" viewBox="0 0 40 32">
      <path fill="#0c2f54" d="M14.58 16c2.621 0 4.742-2.147 4.742-4.8s-2.121-4.8-4.742-4.8-4.742 2.147-4.742 4.8S11.959 16 14.58 16zm3.251 1.371h-.351c-.881.429-1.859.686-2.9.686s-2.015-.257-2.9-.686h-.351c-2.693 0-4.877 2.211-4.877 4.937v1.234c0 1.136.91 2.057 2.032 2.057h12.193c1.122 0 2.032-.921 2.032-2.057v-1.234c0-2.726-2.185-4.937-4.877-4.937zM26.772 16c2.244 0 4.064-1.843 4.064-4.114s-1.82-4.114-4.064-4.114c-2.244 0-4.064 1.843-4.064 4.114S24.528 16 26.772 16zm2.033 1.371h-.161c-.588.206-1.211.343-1.871.343s-1.283-.137-1.871-.343h-.161c-.864 0-1.66.253-2.358.66a6.314 6.314 0 0 1 1.681 4.277v1.646c0 .094-.021.184-.025.274h7.477c1.122 0 2.032-.921 2.032-2.057 0-2.653-2.121-4.8-4.742-4.8z" style="fill:var(--color1, #0c2f54)"/>
    </symbol>
  </defs>
</svg>
